<svg aria-hidden="true" style="position: absolute; width: 0; height: 0; overflow: hidden;" version="1.1" xmlns="http://www.w3.org/2000/svg" xmlns:xlink="http://www.w3.org/1999/xlink">
<defs>
<symbol id="icon-mobilemenu2" viewBox="0 0 47 32">
<path stroke-linejoin="round" stroke-linecap="round" stroke-miterlimit="4" stroke-width="4.3636" d="M1.96 29.154h42.965M1.96 15.615h42.965M1.96 2.077h42.965"></path>
</symbol>
<symbol id="icon-Arrow-2-Stroke" viewBox="0 0 64 32">
<path fill="#fff" style="fill: var(--color1, #fff)" d="M44.444 0l19.556 15.396-19.556 15.396v-12.729h-44.444v-5.333h44.444v-12.729z"></path>
</symbol>
<symbol id="icon-arrow-narrow-up-right" viewBox="0 0 32 32">
<path fill="none" stroke="#777" style="stroke: var(--color2, #777)" stroke-linejoin="round" stroke-linecap="round" stroke-miterlimit="4" stroke-width="2.0800" d="M8 24l16-16"></path>
<path fill="none" stroke="#777" style="stroke: var(--color2, #777)" stroke-linejoin="round" stroke-linecap="round" stroke-miterlimit="4" stroke-width="2.0800" d="M13.333 8h10.667v10.667"></path>
</symbol>
<symbol id="icon-menu" viewBox="0 0 32 32">
<path d="M2 6h28v6h-28zM2 14h28v6h-28zM2 22h28v6h-28z"></path>
</symbol>
<symbol id="icon-cross" viewBox="0 0 32 32">
<path d="M31.708 25.708c-0-0-0-0-0-0l-9.708-9.708 9.708-9.708c0-0 0-0 0-0 0.105-0.105 0.18-0.227 0.229-0.357 0.133-0.356 0.057-0.771-0.229-1.057l-4.586-4.586c-0.286-0.286-0.702-0.361-1.057-0.229-0.13 0.048-0.252 0.124-0.357 0.228 0 0-0 0-0 0l-9.708 9.708-9.708-9.708c-0-0-0-0-0-0-0.105-0.104-0.227-0.18-0.357-0.228-0.356-0.133-0.771-0.057-1.057 0.229l-4.586 4.586c-0.286 0.286-0.361 0.702-0.229 1.057 0.049 0.13 0.124 0.252 0.229 0.357 0 0 0 0 0 0l9.708 9.708-9.708 9.708c-0 0-0 0-0 0-0.104 0.105-0.18 0.227-0.229 0.357-0.133 0.355-0.057 0.771 0.229 1.057l4.586 4.586c0.286 0.286 0.702 0.361 1.057 0.229 0.13-0.049 0.252-0.124 0.357-0.229 0-0 0-0 0-0l9.708-9.708 9.708 9.708c0 0 0 0 0 0 0.105 0.105 0.227 0.18 0.357 0.229 0.356 0.133 0.771 0.057 1.057-0.229l4.586-4.586c0.286-0.286 0.362-0.702 0.229-1.057-0.049-0.13-0.124-0.252-0.229-0.357z"></path>
</symbol>
<symbol id="icon-Nav" viewBox="0 0 47 32">
<path fill="none" stroke="#fff" style="stroke: var(--color1, #fff)" stroke-linejoin="miter" stroke-linecap="round" stroke-miterlimit="4" stroke-width="2.9091" d="M8.538 5.333h36.553"></path>
<path fill="none" stroke="#fff" style="stroke: var(--color1, #fff)" stroke-linejoin="miter" stroke-linecap="round" stroke-miterlimit="4" stroke-width="2.9091" d="M8.538 24.727h36.553"></path>
<path fill="none" stroke="#fff" style="stroke: var(--color1, #fff)" stroke-linejoin="miter" stroke-linecap="round" stroke-miterlimit="4" stroke-width="2.9091" d="M19.668 15.030h25.423"></path>
</symbol>
<symbol id="icon-Group" viewBox="0 0 43 32">
<path fill="#bea69e" style="fill: var(--color1, #bea69e)" opacity="0.4" d="M28 17.333c0 1.768-0.702 3.464-1.953 4.714s-2.946 1.953-4.714 1.953c-1.768 0-3.464-0.702-4.714-1.953s-1.953-2.946-1.953-4.714c0-1.768 0.702-3.464 1.953-4.714s2.946-1.953 4.714-1.953c1.768 0 3.464 0.702 4.714 1.953s1.953 2.946 1.953 4.714z"></path>
<path fill="#bea69e" style="fill: var(--color1, #bea69e)" opacity="0.4" d="M5.333 5.333c-1.414 0-2.771 0.562-3.771 1.562s-1.562 2.357-1.562 3.771v16c0 1.414 0.562 2.771 1.562 3.771s2.357 1.562 3.771 1.562h32c1.414 0 2.771-0.562 3.771-1.562s1.562-2.357 1.562-3.771v-16c0-1.414-0.562-2.771-1.562-3.771s-2.357-1.562-3.771-1.562h-3.125c-1.414-0-2.771-0.562-3.771-1.563l-2.208-2.208c-1-1-2.356-1.562-3.771-1.563h-6.251c-1.414 0-2.771 0.562-3.771 1.563l-2.208 2.208c-1 1-2.356 1.562-3.771 1.563h-3.125zM6.667 10.667c-0.354 0-0.693-0.14-0.943-0.391s-0.391-0.589-0.391-0.943c0-0.354 0.14-0.693 0.391-0.943s0.589-0.391 0.943-0.391c0.354 0 0.693 0.14 0.943 0.391s0.391 0.589 0.391 0.943c0 0.354-0.14 0.693-0.391 0.943s-0.589 0.391-0.943 0.391zM30.667 17.333c0 2.475-0.983 4.849-2.734 6.6s-4.124 2.734-6.6 2.734c-2.475 0-4.849-0.983-6.6-2.734s-2.734-4.124-2.734-6.6c0-2.475 0.983-4.849 2.734-6.6s4.124-2.734 6.6-2.734c2.475 0 4.849 0.983 6.6 2.734s2.734 4.124 2.734 6.6z"></path>
</symbol>
<symbol id="icon-chrest" viewBox="0 0 32 32">
<path fill="none" stroke="#1d1d1d" style="stroke: var(--color1, #1d1d1d)" stroke-linejoin="miter" stroke-linecap="round" stroke-miterlimit="4" stroke-width="3" d="M24 8l-16 16"></path>
<path fill="none" stroke="#1d1d1d" style="stroke: var(--color1, #1d1d1d)" stroke-linejoin="miter" stroke-linecap="round" stroke-miterlimit="4" stroke-width="3" d="M8 8l16 16"></path>
</symbol>
<symbol id="icon-Vector" viewBox="0 0 32 32">
<path stroke-linejoin="round" stroke-linecap="round" stroke-miterlimit="4" stroke-width="4.8" d="M28.8 3.2l-25.6 25.6"></path>
</symbol>
</defs>
</svg>
